<?xml version="1.0" encoding="utf-8"?>
<!-- Generator: Adobe Illustrator 24.0.0, SVG Export Plug-In . SVG Version: 6.00 Build 0)  -->
<svg version="1.1" id="Layer_1" xmlns="http://www.w3.org/2000/svg" xmlns:xlink="http://www.w3.org/1999/xlink" x="0px" y="0px"
	 viewBox="0 0 595.28 419.53" style="enable-background:new 0 0 595.28 419.53;" xml:space="preserve">
<style type="text/css">
	.st0{clip-path:url(#SVGID_2_);fill:#808285;}
	.st1{fill:#808285;}
	.st2{clip-path:url(#SVGID_4_);fill:#808285;}
	.st3{clip-path:url(#SVGID_6_);fill:#808285;}
	.st4{clip-path:url(#SVGID_8_);fill:#808285;}
</style>
<g>
	<defs>
		<rect id="SVGID_1_" width="595.28" height="419.53"/>
	</defs>
	<clipPath id="SVGID_2_">
		<use xlink:href="#SVGID_1_"  style="overflow:visible;"/>
	</clipPath>
	<path class="st0" d="M177.6,192.01l-2.98,2.29c-1.64-2.14-3.62-3.76-5.92-4.87c-2.3-1.11-4.84-1.66-7.59-1.66
		c-3.01,0-5.81,0.72-8.38,2.17c-2.57,1.45-4.56,3.39-5.97,5.83s-2.12,5.19-2.12,8.24c0,4.61,1.58,8.45,4.74,11.54
		c3.16,3.08,7.15,4.63,11.96,4.63c5.29,0,9.72-2.07,13.28-6.22l2.98,2.26c-1.88,2.4-4.24,4.25-7.05,5.56
		c-2.82,1.31-5.96,1.97-9.44,1.97c-6.61,0-11.83-2.2-15.65-6.6c-3.2-3.72-4.81-8.21-4.81-13.46c0-5.53,1.94-10.19,5.82-13.96
		c3.88-3.78,8.74-5.67,14.58-5.67c3.53,0,6.72,0.7,9.56,2.09C173.45,187.54,175.78,189.49,177.6,192.01"/>
	<path class="st0" d="M206.7,187.72c-2.8,0-5.45,0.73-7.95,2.19c-2.51,1.46-4.46,3.42-5.87,5.89c-1.41,2.47-2.11,5.22-2.11,8.25
		c0,4.49,1.56,8.28,4.67,11.38c3.12,3.1,6.87,4.64,11.26,4.64c2.93,0,5.65-0.71,8.15-2.14c2.5-1.42,4.44-3.37,5.84-5.84
		c1.4-2.47,2.1-5.21,2.1-8.23c0-3-0.7-5.71-2.1-8.14c-1.4-2.43-3.37-4.37-5.91-5.82C212.24,188.45,209.55,187.72,206.7,187.72
		 M206.53,184.05c5.72,0,10.51,1.91,14.37,5.73c3.86,3.82,5.79,8.52,5.79,14.11c0,5.53-1.93,10.23-5.77,14.08
		c-3.85,3.85-8.54,5.78-14.08,5.78c-5.61,0-10.34-1.92-14.19-5.76c-3.86-3.84-5.79-8.48-5.79-13.93c0-3.63,0.88-7,2.64-10.1
		c1.76-3.1,4.15-5.53,7.19-7.28C199.72,184.93,203,184.05,206.53,184.05"/>
</g>
<polygon class="st1" points="232.76,188.7 232.76,185 261.59,185 261.59,188.7 249.06,188.7 249.06,222.79 245.21,222.79 
	245.21,188.7 "/>
<g>
	<defs>
		<rect id="SVGID_3_" width="595.28" height="419.53"/>
	</defs>
	<clipPath id="SVGID_4_">
		<use xlink:href="#SVGID_3_"  style="overflow:visible;"/>
	</clipPath>
	<path class="st2" d="M311.04,188.7v12.85l6.51,0.05c2.52,0,4.39-0.24,5.6-0.72c1.21-0.48,2.15-1.25,2.83-2.3
		c0.68-1.05,1.02-2.23,1.02-3.53c0-1.27-0.34-2.42-1.03-3.46c-0.68-1.04-1.59-1.78-2.7-2.22c-1.12-0.45-2.97-0.67-5.56-0.67H311.04z
		 M307.26,185h7.53c4.2,0,7.04,0.17,8.53,0.51c2.24,0.52,4.07,1.62,5.47,3.31c1.4,1.69,2.11,3.77,2.11,6.24
		c0,2.06-0.48,3.87-1.45,5.43c-0.97,1.56-2.35,2.74-4.15,3.54c-1.8,0.8-4.28,1.21-7.45,1.22l13.59,17.55h-4.67l-13.59-17.55h-2.14
		v17.55h-3.78V185z"/>
</g>
<polygon class="st1" points="344.63,185 366.29,185 366.29,188.7 348.4,188.7 348.4,200.54 366.13,200.54 366.13,204.24 
	348.4,204.24 348.4,219.09 366.13,219.09 366.13,222.79 344.63,222.79 "/>
<polygon class="st1" points="379.94,185 383.72,185 383.72,219.15 398.26,219.15 398.26,222.79 379.94,222.79 "/>
<g>
	<defs>
		<rect id="SVGID_5_" width="595.28" height="419.53"/>
	</defs>
	<clipPath id="SVGID_6_">
		<use xlink:href="#SVGID_5_"  style="overflow:visible;"/>
	</clipPath>
	<path class="st3" d="M427.36,187.72c-2.8,0-5.45,0.73-7.95,2.19c-2.51,1.46-4.46,3.42-5.87,5.89c-1.41,2.47-2.11,5.22-2.11,8.25
		c0,4.49,1.56,8.28,4.67,11.38c3.12,3.1,6.87,4.64,11.26,4.64c2.93,0,5.65-0.71,8.14-2.14c2.5-1.42,4.44-3.37,5.84-5.84
		c1.4-2.47,2.1-5.21,2.1-8.23c0-3-0.7-5.71-2.1-8.14s-3.37-4.37-5.9-5.82C432.9,188.45,430.21,187.72,427.36,187.72 M427.19,184.05
		c5.72,0,10.51,1.91,14.37,5.73c3.86,3.82,5.79,8.52,5.79,14.11c0,5.53-1.92,10.23-5.77,14.08c-3.85,3.85-8.54,5.78-14.08,5.78
		c-5.61,0-10.33-1.92-14.19-5.76c-3.86-3.84-5.79-8.48-5.79-13.93c0-3.63,0.88-7,2.64-10.1c1.76-3.1,4.15-5.53,7.19-7.28
		C420.38,184.93,423.66,184.05,427.19,184.05"/>
</g>
<polygon class="st1" points="280.37,185 279.44,185 261.59,222.79 265.8,222.79 271.69,210.36 273.42,206.71 279.89,193.03 
	286.34,206.71 287.97,210.36 293.92,222.79 298,222.79 "/>
<rect x="203.53" y="250.79" class="st1" width="18.31" height="1.14"/>
<polygon class="st1" points="234.16,243.42 235.46,243.42 235.46,248.87 242.07,248.87 242.07,243.42 243.37,243.42 243.37,256.42 
	242.07,256.42 242.07,250.15 235.46,250.15 235.46,256.42 234.16,256.42 "/>
<g>
	<defs>
		<rect id="SVGID_7_" width="595.28" height="419.53"/>
	</defs>
	<clipPath id="SVGID_8_">
		<use xlink:href="#SVGID_7_"  style="overflow:visible;"/>
	</clipPath>
	<path class="st4" d="M263.65,244.36c-0.96,0-1.87,0.25-2.74,0.75c-0.86,0.5-1.53,1.18-2.02,2.03c-0.48,0.85-0.72,1.8-0.72,2.84
		c0,1.54,0.53,2.85,1.6,3.91c1.07,1.06,2.36,1.6,3.88,1.6c1.01,0,1.94-0.24,2.8-0.73c0.86-0.49,1.53-1.16,2.01-2.01
		c0.48-0.85,0.73-1.79,0.73-2.83s-0.24-1.97-0.73-2.8c-0.48-0.84-1.16-1.5-2.03-2.01C265.55,244.61,264.62,244.36,263.65,244.36
		 M263.59,243.1c1.97,0,3.61,0.66,4.94,1.97c1.33,1.32,1.99,2.93,1.99,4.85c0,1.9-0.66,3.52-1.99,4.84
		c-1.32,1.33-2.93,1.99-4.84,1.99c-1.93,0-3.56-0.66-4.88-1.98c-1.33-1.32-1.99-2.92-1.99-4.79c0-1.25,0.3-2.4,0.91-3.47
		c0.6-1.07,1.43-1.9,2.47-2.5C261.24,243.4,262.37,243.1,263.59,243.1"/>
	<path class="st4" d="M282.65,254l1.1-0.66c0.78,1.43,1.67,2.15,2.7,2.15c0.43,0,0.84-0.1,1.23-0.3c0.38-0.2,0.67-0.48,0.88-0.82
		c0.2-0.34,0.3-0.7,0.3-1.09c0-0.43-0.15-0.86-0.44-1.28c-0.41-0.57-1.15-1.27-2.23-2.09c-1.09-0.82-1.76-1.41-2.02-1.78
		c-0.46-0.61-0.69-1.27-0.69-1.99c0-0.57,0.13-1.08,0.41-1.55c0.27-0.46,0.65-0.83,1.14-1.1c0.49-0.27,1.02-0.41,1.6-0.41
		c0.61,0,1.18,0.15,1.72,0.46c0.53,0.3,1.1,0.86,1.69,1.67l-1.06,0.8c-0.49-0.65-0.9-1.07-1.25-1.28c-0.35-0.2-0.72-0.31-1.13-0.31
		c-0.53,0-0.95,0.16-1.29,0.48c-0.33,0.32-0.5,0.71-0.5,1.18c0,0.28,0.06,0.56,0.18,0.82c0.11,0.26,0.33,0.56,0.65,0.87
		c0.17,0.17,0.73,0.6,1.68,1.3c1.12,0.83,1.9,1.57,2.32,2.22c0.42,0.65,0.63,1.3,0.63,1.95c0,0.94-0.36,1.76-1.07,2.46
		c-0.72,0.7-1.59,1.04-2.61,1.04c-0.79,0-1.51-0.21-2.15-0.63C283.78,255.7,283.18,254.99,282.65,254"/>
</g>
<polygon class="st1" points="302.57,244.69 302.57,243.42 309.69,243.42 309.69,244.69 306.79,244.69 306.79,256.42 305.47,256.42 
	305.47,244.69 "/>
<path class="st1" d="M327.57,246.19l-2.23,4.7h4.44L327.57,246.19z M327.74,243.42l6.06,13h-1.4l-2.05-4.28h-5.6l-2.02,4.28h-1.45
	l6.14-13H327.74z"/>
<polygon class="st1" points="346.67,243.42 347.97,243.42 347.97,255.17 352.97,255.17 352.97,256.42 346.67,256.42 "/>
<rect x="360.04" y="250.79" class="st1" width="18.31" height="1.14"/>
</svg>
